<?xml version="1.0" standalone="no"?>
<!DOCTYPE svg PUBLIC "-//W3C//DTD SVG 20010904//EN"
 "http://www.w3.org/TR/2001/REC-SVG-20010904/DTD/svg10.dtd">
<svg version="1.0" xmlns="http://www.w3.org/2000/svg"
 width="251.000000pt" height="229.000000pt" viewBox="0 0 251.000000 229.000000"
 preserveAspectRatio="xMidYMid meet">

<g transform="translate(0.000000,229.000000) scale(0.100000,-0.100000)"
fill="#2a2a2a" stroke="#ffffff">
<path d="M0 1145 l0 -1145 1255 0 1255 0 0 1145 0 1145 -1255 0 -1255 0 0
-1145z m1478 1079 c226 -40 467 -176 607 -342 27 -31 42 -51 35 -44 -26 23
-32 12 -10 -18 12 -16 26 -30 32 -30 6 0 5 7 -3 18 -7 9 1 2 19 -15 l31 -33
120 0 121 0 0 -55 0 -55 -197 2 -198 3 -3 53 -3 52 50 0 c80 0 65 24 -40 64
-69 27 -69 36 0 11 22 -8 41 -10 41 -5 0 8 -110 108 -175 158 -17 13 -23 20
-15 16 8 -4 43 -29 78 -57 34 -27 62 -44 62 -39 0 20 -165 162 -188 162 -20 0
-13 -27 11 -44 l22 -17 -24 12 c-20 9 -27 7 -52 -17 -16 -15 -29 -33 -29 -40
0 -19 50 -74 66 -74 9 0 12 -5 8 -11 -3 -6 7 -25 22 -42 28 -31 27 -31 -8 2
-21 19 -40 32 -44 29 -8 -9 -41 25 -37 37 4 12 -49 63 -117 115 -25 18 -49 38
-55 43 -17 17 17 -4 72 -45 51 -37 73 -46 73 -30 0 4 -6 14 -12 22 -7 8 -3 6
10 -5 23 -19 23 -19 48 7 l26 26 -43 26 c-45 27 -44 37 1 11 40 -23 46 -17 15
15 -38 40 -181 93 -160 60 4 -6 27 -21 53 -34 38 -20 42 -24 20 -22 -15 1 -33
8 -41 14 -8 7 -39 21 -68 32 -30 11 -40 18 -24 14 27 -5 29 -4 14 11 -8 9 -39
18 -70 20 -36 4 -48 2 -34 -4 13 -6 -12 -8 -73 -5 l-94 3 55 -58 c30 -31 72
-84 93 -117 20 -32 42 -62 48 -66 18 -13 79 -9 135 8 29 8 56 13 59 10 3 -3 0
-6 -6 -6 -6 0 -23 -5 -39 -11 l-28 -12 25 -8 c14 -4 -5 -5 -44 -2 -58 5 -71 3
-82 -11 -8 -11 -14 -13 -19 -7 -3 6 -17 11 -31 11 -23 0 -24 1 -10 16 9 8 16
18 16 21 0 12 -73 113 -112 153 l-42 45 -7 -35 -6 -35 -2 41 c-1 44 -21 70
-45 61 -8 -3 -16 -1 -18 4 -6 19 -123 -68 -200 -149 -43 -45 -78 -86 -78 -92
0 -5 13 -10 29 -10 17 0 32 -4 36 -9 3 -6 -8 -8 -28 -4 -26 4 -40 -1 -68 -23
-18 -15 -28 -21 -21 -14 6 8 12 20 12 28 0 19 -70 7 -87 -16 -8 -9 -13 -11
-13 -4 0 7 -12 13 -27 13 l-28 1 30 7 c37 8 44 34 13 49 -22 11 -22 11 4 6 22
-5 29 -1 42 23 l15 28 -5 -31 c-5 -28 -3 -32 25 -42 43 -15 52 -10 106 59 26
33 78 85 117 116 39 32 66 59 61 60 -5 2 -50 -10 -98 -27 -100 -34 -129 -34
-36 1 56 20 86 39 63 39 -74 0 -167 -45 -155 -76 3 -8 -2 -17 -11 -20 -10 -4
-28 -23 -42 -43 -18 -24 -24 -29 -19 -13 3 12 3 22 -2 22 -18 0 -103 -66 -99
-77 3 -7 -1 -10 -9 -7 -8 3 -36 -13 -65 -38 -47 -40 -49 -43 -28 -50 20 -5 19
-6 -7 -7 -22 -1 -43 -16 -89 -63 -56 -58 -53 -49 3 15 17 19 21 27 10 27 -8 1
-2 6 13 13 27 12 128 102 128 114 0 4 -8 16 -17 27 -18 21 -18 21 3 4 11 -10
25 -18 31 -18 36 0 211 139 186 147 -17 6 -159 -42 -200 -67 -18 -11 -33 -24
-33 -30 0 -5 -6 -7 -13 -4 -22 8 -106 -56 -149 -112 -41 -55 -63 -74 -34 -29
29 43 3 27 -64 -40 -50 -50 -60 -65 -45 -65 17 -1 15 -3 -7 -16 -16 -8 -28
-17 -28 -19 0 -2 19 -13 43 -24 23 -11 50 -26 59 -34 51 -41 65 -179 25 -238
-12 -19 -37 -43 -54 -54 -18 -11 -32 -23 -33 -27 0 -4 27 -66 60 -138 33 -72
60 -133 60 -135 0 -3 -29 -5 -65 -5 l-66 0 -53 113 c-29 61 -56 120 -59 130
-5 12 -17 17 -42 17 l-35 0 0 -130 c0 -123 -1 -130 -20 -130 -18 0 -20 -5 -16
-72 5 -79 33 -197 66 -274 12 -26 19 -57 18 -68 -5 -31 -64 138 -82 234 -9 45
-16 104 -16 131 l0 49 -40 0 -40 0 0 190 0 190 63 2 c34 1 81 0 103 -1 49 -3
117 14 131 32 22 27 23 65 4 88 -18 23 -27 24 -158 29 l-138 5 -3 58 -3 57
134 0 134 0 26 38 c83 123 238 252 400 332 224 110 440 139 695 94z m-58 -64
c18 -12 2 -12 -25 0 -13 6 -15 9 -5 9 8 0 22 -4 30 -9z m117 4 c-3 -3 -12 -4
-19 -1 -8 3 -5 6 6 6 11 1 17 -2 13 -5z m-67 -24 c8 -5 11 -10 5 -10 -5 0 -17
5 -25 10 -8 5 -10 10 -5 10 6 0 17 -5 25 -10z m-213 -37 c-3 -10 -5 -4 -5 12
0 17 2 24 5 18 2 -7 2 -21 0 -30z m333 -29 c0 -2 -13 2 -30 11 -16 9 -30 18
-30 21 0 2 14 -2 30 -11 17 -9 30 -18 30 -21z m-343 -51 c-3 -10 -5 -2 -5 17
0 19 2 27 5 18 2 -10 2 -26 0 -35z m153 -84 l55 -6 -52 -1 -51 -2 -1 -142 c-1
-78 -4 -144 -6 -147 -3 -2 -5 51 -5 118 0 100 -3 123 -15 127 -11 5 -13 10 -5
19 6 7 10 17 9 21 -1 5 0 32 1 59 l3 50 6 -45 6 -45 55 -6z m-159 -12 c-13
-13 -21 5 -14 33 l6 24 9 -24 c5 -14 5 -27 -1 -33z m-84 6 c-20 -2 -52 -2 -70
0 -17 2 0 4 38 4 39 0 53 -2 32 -4z m1 -30 c-16 -2 -40 -2 -55 0 -16 2 -3 4
27 4 30 0 43 -2 28 -4z m75 -40 c-7 -71 -11 -75 -12 -10 -1 31 3 57 8 57 5 0
6 -21 4 -47z m195 40 c-10 -2 -26 -2 -35 0 -10 3 -2 5 17 5 19 0 27 -2 18 -5z
m315 0 c-7 -2 -21 -2 -30 0 -10 3 -4 5 12 5 17 0 24 -2 18 -5z m-986 -9 c-3
-3 -12 -4 -19 -1 -8 3 -5 6 6 6 11 1 17 -2 13 -5z m837 -144 c4 -14 -9 8 -29
49 -19 40 -35 76 -35 80 1 10 57 -103 64 -129z m303 124 c-3 -3 -12 -4 -19 -1
-8 3 -5 6 6 6 11 1 17 -2 13 -5z m-1396 -18 c-9 -11 -9 -15 1 -18 9 -2 2 -13
-19 -32 -23 -20 -31 -23 -26 -10 5 13 3 15 -7 9 -8 -5 2 8 21 28 33 36 53 51
30 23z m336 -8 c-3 -8 -6 -5 -6 6 -1 11 2 17 5 13 3 -3 4 -12 1 -19z m1100 16
c-3 -3 -12 -4 -19 -1 -8 3 -5 6 6 6 11 1 17 -2 13 -5z m-1110 -56 c-3 -8 -6
-5 -6 6 -1 11 2 17 5 13 3 -3 4 -12 1 -19z m58 -18 c-8 -16 -15 -55 -15 -90
l0 -60 -90 0 -90 0 0 -70 0 -70 130 0 130 0 0 -30 c0 -29 1 -30 53 -31 38 0
47 -3 32 -9 -11 -5 -35 -9 -52 -9 -26 -1 -33 -5 -33 -21 0 -18 -7 -20 -82 -21
-46 0 -105 0 -131 1 l-48 2 3 -74 3 -73 88 -3 87 -3 0 -59 0 -60 -155 0 -155
0 0 325 0 325 118 0 c78 0 122 4 130 12 9 9 12 9 12 0 0 -25 40 -12 55 18 9
17 18 30 21 30 2 0 -2 -13 -11 -30z m1038 -28 c44 -1 81 -3 83 -5 5 -5 7 -248
2 -252 -5 -5 -32 -7 -75 -6 l-43 1 0 70 0 70 -52 0 c-70 0 -132 -31 -166 -84
-24 -36 -27 -51 -27 -121 0 -96 21 -138 87 -175 37 -21 59 -25 160 -28 l118
-4 0 -61 0 -60 -127 5 c-115 5 -135 9 -193 35 -76 35 -120 78 -152 148 -19 41
-23 67 -22 145 0 105 23 177 70 221 16 15 22 29 18 43 -4 16 -3 17 4 7 8 -11
17 -10 55 8 25 12 73 27 106 33 34 6 61 16 61 22 0 7 3 7 8 -1 4 -7 37 -11 85
-11z m-638 -124 c140 -358 195 -504 195 -516 0 -10 -16 -13 -65 -10 l-64 3 -4
-55 c-2 -44 -4 -38 -5 26 -2 69 -9 102 -48 210 -73 202 -63 190 -89 109 -13
-38 -41 -119 -63 -180 l-40 -110 -67 -3 c-52 -2 -66 0 -62 10 3 7 29 74 57
148 29 74 81 207 115 295 34 88 65 168 68 178 4 9 10 17 15 17 5 0 31 -55 57
-122z m-745 108 c0 -2 -8 -10 -17 -17 -16 -13 -17 -12 -4 4 13 16 21 21 21 13z
m1760 -213 c51 -135 62 -201 65 -373 2 -91 0 -145 -3 -120 -5 35 -9 42 -17 30
-5 -8 -21 -24 -35 -35 -14 -11 -8 -1 13 21 48 51 51 105 10 156 -16 20 -19 26
-7 16 30 -26 36 -22 29 20 -13 85 -49 222 -57 222 -6 0 -9 -49 -8 -117 4 -226
2 -243 -20 -243 -12 0 -20 -7 -21 -17 -1 -17 -2 -17 -6 0 -3 12 -15 17 -39 17
-33 0 -34 1 -35 43 -1 23 0 68 1 100 1 36 -2 57 -9 57 -6 0 -11 -6 -12 -12 0
-7 -4 -3 -9 10 -5 12 -17 22 -27 23 -16 0 -15 1 2 9 13 5 26 3 38 -8 16 -14
17 -9 17 91 l0 107 25 0 c14 0 25 6 26 13 0 10 2 10 6 0 2 -7 16 -13 29 -13
21 0 23 3 14 19 -12 24 -13 41 -1 41 5 0 19 -26 31 -57z m-235 -3 c3 -5 1 -10
-4 -10 -6 0 -11 5 -11 10 0 6 2 10 4 10 3 0 8 -4 11 -10z m-169 -50 c11 0 11
-4 -3 -19 -12 -15 -19 -16 -28 -8 -7 7 -9 14 -4 15 5 2 10 16 10 30 2 24 2 24
6 5 2 -13 11 -23 19 -23z m-79 -26 c-3 -3 -12 -4 -19 -1 -8 3 -5 6 6 6 11 1
17 -2 13 -5z m-84 -41 c-19 -3 -34 -11 -36 -21 -3 -12 -5 -10 -6 6 -1 19 3 22
37 20 36 -1 36 -1 5 -5z m182 -26 c15 -4 14 -5 -7 -6 -26 -1 -27 -4 -31 -58
l-3 -58 -2 63 c-1 35 -7 62 -12 62 -6 0 -5 6 2 14 10 11 15 11 23 1 5 -8 19
-15 30 -18z m-92 16 c-7 -2 -21 -2 -30 0 -10 3 -4 5 12 5 17 0 24 -2 18 -5z
m150 -30 c-7 -2 -19 -2 -25 0 -7 3 -2 5 12 5 14 0 19 -2 13 -5z m44 -9 c-3 -3
-12 -4 -19 -1 -8 3 -5 6 6 6 11 1 17 -2 13 -5z m58 -14 c13 -5 14 -9 5 -9 -8
0 -24 4 -35 9 -13 5 -14 9 -5 9 8 0 24 -4 35 -9z m-878 -222 c-2 -13 -4 -3 -4
22 0 25 2 35 4 23 2 -13 2 -33 0 -45z m-910 -35 c-3 -10 -5 -2 -5 17 0 19 2
27 5 18 2 -10 2 -26 0 -35z m520 -15 c-3 -8 -6 -5 -6 6 -1 11 2 17 5 13 3 -3
4 -12 1 -19z m940 -70 c-2 -18 -4 -6 -4 27 0 33 2 48 4 33 2 -15 2 -42 0 -60z
m440 15 c-3 -10 -5 -2 -5 17 0 19 2 27 5 18 2 -10 2 -26 0 -35z m-340 15 c-3
-8 -6 -5 -6 6 -1 11 2 17 5 13 3 -3 4 -12 1 -19z m390 0 c-3 -8 -6 -5 -6 6 -1
11 2 17 5 13 3 -3 4 -12 1 -19z m-1996 -5 c13 -16 12 -17 -3 -4 -17 13 -22 21
-14 21 2 0 10 -8 17 -17z m576 -15 c-3 -8 -6 -5 -6 6 -1 11 2 17 5 13 3 -3 4
-12 1 -19z m-529 -27 c-12 -4 -29 20 -21 32 3 4 11 0 18 -10 9 -12 10 -19 3
-22z m379 -23 c-2 -13 -4 -3 -4 22 0 25 2 35 4 23 2 -13 2 -33 0 -45z m1571
21 c-9 -6 -12 -28 -9 -78 3 -66 2 -70 -20 -73 -15 -2 -25 -12 -29 -28 -4 -15
-9 -20 -13 -13 -4 6 -4 18 -1 27 5 14 -4 16 -69 16 -136 0 -162 -25 -162 -160
0 -140 28 -174 136 -168 l54 3 0 40 0 40 -47 3 -48 3 0 60 0 59 111 0 c104 0
111 -1 116 -21 5 -16 8 -18 15 -7 7 9 7 7 2 -7 -5 -11 -10 -77 -12 -146 l-3
-127 -44 -11 c-25 -6 -78 -14 -119 -18 -228 -19 -314 71 -304 316 5 121 25
172 81 215 42 33 134 56 218 56 85 0 129 9 129 26 0 8 6 11 16 7 12 -5 13 -7
2 -14z m-1898 -9 c8 -5 11 -10 5 -10 -5 0 -17 5 -25 10 -8 5 -10 10 -5 10 6 0
17 -5 25 -10z m177 -22 c119 -5 147 -15 179 -64 36 -54 12 -194 -33 -194 -10
0 -3 -9 18 -23 44 -29 59 -60 59 -122 0 -63 -25 -114 -70 -140 -31 -17 -56
-20 -202 -23 l-168 -4 -1 119 c-3 192 0 445 4 449 2 2 22 5 45 6 23 1 42 6 42
12 0 8 3 8 8 0 4 -7 52 -13 119 -16z m368 2 l54 0 3 -47 c3 -46 4 -48 36 -51
43 -4 41 -22 -3 -22 l-35 0 0 -129 c0 -71 3 -143 6 -160 l7 -31 108 0 109 0 0
-65 0 -65 -185 0 -185 0 0 280 c0 211 3 284 13 294 6 8 14 10 15 5 2 -5 28 -9
57 -9z m1472 -17 c-3 -10 -5 -4 -5 12 0 17 2 24 5 18 2 -7 2 -21 0 -30z m-749
2 c23 -10 58 -35 76 -57 29 -34 36 -51 46 -125 23 -158 -7 -280 -82 -336 -73
-54 -244 -62 -337 -15 -37 19 -51 34 -75 82 -26 51 -29 69 -30 154 -1 54 2
116 7 139 6 37 5 43 -10 41 -37 -3 -126 2 -121 7 2 3 37 6 76 6 40 1 75 5 78
10 3 5 -29 9 -72 9 -96 0 -93 10 4 12 56 1 75 5 89 20 27 30 78 58 125 68 60
13 175 5 226 -15z m-1321 -62 c-3 -10 -5 -2 -5 17 0 19 2 27 5 18 2 -10 2 -26
0 -35z m2060 15 c-3 -8 -6 -5 -6 6 -1 11 2 17 5 13 3 -3 4 -12 1 -19z m-535
-20 c-8 -8 -9 -4 -5 13 4 13 8 18 11 10 2 -7 -1 -18 -6 -23z m525 -20 c-3 -8
-6 -5 -6 6 -1 11 2 17 5 13 3 -3 4 -12 1 -19z m-22 -78 c-9 -28 -19 -50 -21
-48 -2 2 4 27 13 56 9 28 19 50 21 47 2 -2 -4 -27 -13 -55z m-1101 -402 c7 -5
7 -8 -2 -8 -9 0 -11 -7 -7 -20 4 -11 2 -20 -4 -20 -6 0 -11 9 -11 20 0 16 -7
20 -32 22 l-33 1 33 4 c21 3 32 10 33 21 0 14 2 14 6 2 3 -8 11 -18 17 -22z
m482 7 c-3 -8 0 -15 6 -15 7 0 4 -6 -7 -13 -10 -8 -15 -19 -12 -24 4 -6 0 -16
-8 -23 -12 -10 -15 -10 -15 3 0 24 -60 36 -158 32 l-87 -3 65 9 c36 5 93 9
127 9 52 0 65 4 75 20 15 24 23 26 14 5z m178 6 c3 -4 -4 -17 -17 -27 l-22
-19 18 21 c14 17 15 23 5 27 -9 4 -9 6 -1 6 6 1 14 -3 17 -8z m-1101 -48 c11
-13 29 -23 40 -23 11 0 17 -3 14 -7 -4 -3 1 -16 10 -27 18 -21 18 -21 -3 -3
-26 22 -48 22 -40 1 5 -14 4 -15 -8 -5 -8 7 -18 25 -21 41 -3 16 -13 34 -21
40 -7 7 -11 17 -7 23 4 7 8 6 11 -3 3 -8 14 -25 25 -37z m533 -21 c-4 -3 -12
0 -18 6 -9 9 -9 12 0 12 7 0 13 10 13 23 2 17 3 15 6 -6 3 -16 2 -31 -1 -35z
m-211 25 c49 -3 48 -3 -12 -5 -34 -1 -64 2 -67 7 -7 11 17 21 24 10 3 -4 28
-9 55 -12z m-18 17 c-3 -3 -12 -4 -19 -1 -8 3 -5 6 6 6 11 1 17 -2 13 -5z
m-147 -14 c0 -5 -5 -10 -11 -10 -5 0 -7 5 -4 10 3 6 8 10 11 10 2 0 4 -4 4
-10z m-367 -46 c51 -46 130 -104 141 -104 11 0 6 23 -8 39 -13 14 -12 16 8 16
17 0 21 -5 18 -21 -7 -36 77 -98 161 -118 36 -8 35 8 -2 30 -16 10 -32 26 -35
37 -4 18 -3 18 18 -2 13 -12 45 -31 72 -42 30 -12 37 -17 19 -14 -28 6 -29 5
-13 -11 10 -10 37 -18 70 -20 38 -3 47 -2 33 5 -25 12 -7 13 57 2 57 -9 54 0
-7 24 -26 9 -44 19 -42 21 2 2 31 -7 65 -21 87 -35 104 -33 66 8 -62 68 -77
90 -31 47 39 -37 49 -42 57 -30 8 12 10 9 10 -12 0 -16 8 -31 19 -37 22 -12
31 -6 32 23 1 15 3 13 8 -8 l6 -28 70 46 70 46 -45 -40 c-25 -22 -39 -40 -33
-40 25 0 199 60 230 79 18 11 43 42 57 68 14 26 25 44 26 40 0 -4 -7 -22 -16
-38 -8 -17 -13 -34 -10 -37 4 -3 -10 -23 -31 -44 -20 -21 -34 -40 -30 -44 11
-11 179 53 247 95 8 5 28 15 44 22 16 8 50 32 75 55 47 42 81 60 81 44 0 -16
-107 -104 -177 -146 -393 -234 -882 -210 -1239 61 -71 55 -113 95 -100 95 5 0
31 -21 59 -46z m1238 12 c-13 -14 -20 -29 -17 -35 4 -7 1 -8 -9 -5 -8 4 -23 0
-32 -7 -15 -13 -15 -12 -2 9 8 12 19 22 25 22 6 0 19 9 29 20 10 11 20 20 23
20 3 0 -5 -11 -17 -24z m-716 -48 c16 -24 22 -38 14 -31 -15 12 -53 73 -46 73
2 0 17 -19 32 -42z m-415 -4 c0 -2 -9 0 -20 6 -11 6 -20 13 -20 16 0 2 9 0 20
-6 11 -6 20 -13 20 -16z m860 23 c0 -2 -10 -12 -22 -23 l-23 -19 19 23 c18 21
26 27 26 19z m-233 -44 c-3 -10 -5 -4 -5 12 0 17 2 24 5 18 2 -7 2 -21 0 -30z
m-90 -20 c-3 -10 -5 -2 -5 17 0 19 2 27 5 18 2 -10 2 -26 0 -35z m-382 11 c9
-15 12 -23 6 -20 -11 7 -35 46 -28 46 3 0 12 -12 22 -26z m95 -11 c0 -7 -39
17 -46 28 -3 6 5 3 20 -6 14 -10 26 -19 26 -22z m785 21 c-26 -20 -55 -36 -55
-30 0 5 63 46 70 46 3 -1 -4 -8 -15 -16z m-869 -72 c-5 -4 -106 46 -106 53 0
3 25 -7 55 -22 30 -15 53 -29 51 -31z m204 -17 c0 -3 -18 4 -40 15 -22 11 -40
23 -40 25 0 3 18 -4 40 -15 22 -11 40 -23 40 -25z m247 13 c-3 -7 -5 -2 -5 12
0 14 2 19 5 13 2 -7 2 -19 0 -25z m-270 -54 c-3 -3 -12 -4 -19 -1 -8 3 -5 6 6
6 11 1 17 -2 13 -5z"/>
<path d="M885 2161 c-61 -18 -130 -49 -123 -56 2 -3 40 9 84 25 43 17 84 30
91 30 6 0 15 5 18 10 8 13 2 12 -70 -9z"/>
<path d="M440 785 l0 -55 59 0 c69 0 84 12 79 67 l-3 38 -67 3 -68 3 0 -56z"/>
<path d="M440 565 l0 -55 61 0 c78 0 99 11 99 53 0 48 -15 57 -92 57 l-68 0 0
-55z"/>
<path d="M1435 835 c-5 -2 -22 -6 -36 -9 -38 -8 -49 -45 -49 -156 0 -90 2
-101 24 -127 22 -26 30 -28 95 -28 101 0 115 15 120 137 2 51 -2 108 -8 129
-10 32 -18 40 -49 49 -36 10 -77 12 -97 5z"/>
<path d="M1662 138 c-45 -17 -81 -32 -79 -34 7 -7 118 26 155 46 54 28 19 23
-76 -12z"/>
<path d="M1476 127 c-81 -32 -86 -44 -13 -33 46 7 107 39 107 56 0 13 -2 13
-94 -23z"/>
<path d="M1260 50 c0 -5 12 -10 26 -10 14 0 23 4 19 10 -3 6 -15 10 -26 10
-10 0 -19 -4 -19 -10z"/>
</g>
</svg>
